<svg width="1940" height="2590" xmlns="http://www.w3.org/2000/svg" preserveAspectRatio="xMidYMid meet">

 <g>
  <title>background</title>
  <rect fill="none" id="canvas_background" height="602" width="802" y="-1" x="-1"/>
 </g>
 <g>
  <title>Layer 1</title>
  <g fill="#222020" id="layer101">
   <path id="svg_1" d="m461,1587c-24,-24 -15,-57 90,-319c32,-81 59,-151 59,-155c0,-5 -43,-19 -96,-33c-83,-21 -99,-28 -121,-56c-13,-18 -27,-47 -30,-65c-4,-29 1,-38 58,-90c34,-33 66,-59 70,-59c5,0 34,-12 66,-26c32,-14 74,-32 93,-41c80,-35 84,-39 101,-100c33,-124 100,-183 208,-183c109,0 201,93 201,204c0,40 5,44 95,81c88,37 179,89 223,129c26,25 35,42 39,76c4,40 1,49 -29,82c-25,29 -47,41 -93,53c-32,8 -67,15 -77,15c-30,0 -29,17 6,112c57,153 106,293 112,325c11,58 18,57 -496,59c-318,1 -472,-2 -479,-9zm380,-107c5,-8 25,-50 45,-92c20,-43 42,-78 49,-78c20,0 51,42 85,118l33,72l153,0c85,0 154,-3 154,-6c0,-3 -14,-45 -31,-92c-111,-308 -118,-331 -102,-343c8,-7 26,-14 41,-15c15,-2 43,-6 62,-10c19,-4 38,-7 42,-6c13,3 58,-60 58,-82c0,-34 -73,-91 -175,-136c-136,-60 -138,-61 -150,-126c-14,-73 -26,-96 -68,-128c-43,-33 -76,-40 -125,-27c-61,17 -95,69 -106,168c-4,31 -39,77 -50,65c-3,-3 -6,1 -6,8c0,7 -3,10 -6,7c-4,-4 -20,0 -35,8c-16,8 -42,22 -59,31c-16,8 -30,13 -30,9c0,-3 -11,2 -25,11c-14,9 -25,13 -25,9c0,-5 -8,-1 -17,7c-10,8 -35,22 -55,32c-49,22 -64,49 -48,86c10,23 23,31 88,50c42,12 88,25 102,29c37,11 38,61 2,141c-16,36 -30,68 -30,73c-1,4 -9,24 -18,45c-9,20 -17,42 -18,47c-2,6 -9,24 -15,40c-12,26 -41,105 -41,109c0,0 70,-1 156,-4c125,-4 159,-8 165,-20zm143,12c2,-4 -7,-25 -20,-47c-13,-22 -24,-33 -24,-23c0,9 -6,23 -13,30c-7,7 -16,21 -20,31c-5,14 0,17 33,17c21,0 41,-3 44,-8z"/>
  </g>
  <g fill="#524845" id="layer102">
   <path id="svg_2" d="m872,1582c-9,-6 -10,-16 -2,-39c8,-23 19,-32 42,-37c54,-11 93,2 105,35c10,25 9,29 -5,29c-15,0 -15,2 -2,10c10,7 -6,10 -55,10c-38,0 -76,-4 -83,-8z"/>
   <path id="svg_3" d="m1438,990c12,-18 18,-38 15,-43c-3,-6 -1,-7 5,-3c7,4 10,17 8,29c-3,12 -5,26 -5,31c-1,5 -4,6 -8,3c-3,-4 -13,-1 -21,5c-8,7 -6,-2 6,-22z"/>
  </g>
  <path stroke="#000" id="svg_5" d="m1154.48739,1118.37067l-57.25384,-114.70965c-17.26182,-34.57319 -45.4959,-91.17225 -62.75782,-125.75212l-57.24849,-114.70269c-17.27896,-34.59347 -45.51301,-34.59347 -62.76911,0l-57.2369,114.70269c-17.26182,34.57988 -45.5131,91.19211 -62.76923,125.75212l-57.24273,114.70965c-17.26179,34.60654 -3.13318,62.89264 31.38468,62.89264l354.47453,0c34.55234,0 48.66345,-28.28612 31.4189,-62.89264l0.00002,0zm-192.29626,17.75794l-33.95708,0l0,-37.71671l33.95708,0l0,37.71671zm-1.63597,-65.50783l-30.65615,0l-3.04659,-161.37587l36.47748,0l-2.77472,161.37587l-0.00002,0z" stroke-width="1.5" fill="#ff0000"/>
 </g>
</svg>