<?xml version="1.0" encoding="UTF-8" standalone="no"?>
<svg
   xmlns:dc="http://purl.org/dc/elements/1.1/"
   xmlns:cc="http://creativecommons.org/ns#"
   xmlns:rdf="http://www.w3.org/1999/02/22-rdf-syntax-ns#"
   xmlns:svg="http://www.w3.org/2000/svg"
   xmlns="http://www.w3.org/2000/svg"
   xmlns:sodipodi="http://sodipodi.sourceforge.net/DTD/sodipodi-0.dtd"
   xmlns:inkscape="http://www.inkscape.org/namespaces/inkscape"
   version="1.0"
   width="194"
   height="194"
   viewBox="0 0 1940.0001 1940"
   preserveAspectRatio="xMidYMid meet"
   id="svg4542"
   sodipodi:docname="firstPlayer.svg"
   inkscape:version="0.92.4 (5da689c313, 2019-01-14)">
  <metadata
     id="metadata4548">
    <rdf:RDF>
      <cc:Work
         rdf:about="">
        <dc:format>image/svg+xml</dc:format>
        <dc:type
           rdf:resource="http://purl.org/dc/dcmitype/StillImage" />
        <dc:title></dc:title>
      </cc:Work>
    </rdf:RDF>
  </metadata>
  <defs
     id="defs4546" />
  <sodipodi:namedview
     pagecolor="#ffffff"
     bordercolor="#666666"
     borderopacity="1"
     objecttolerance="10"
     gridtolerance="10"
     guidetolerance="10"
     inkscape:pageopacity="0"
     inkscape:pageshadow="2"
     inkscape:window-width="1366"
     inkscape:window-height="705"
     id="namedview4544"
     showgrid="false"
     inkscape:zoom="2.0772201"
     inkscape:cx="97"
     inkscape:cy="110.24349"
     inkscape:window-x="-8"
     inkscape:window-y="-8"
     inkscape:window-maximized="1"
     inkscape:current-layer="svg4542"
     units="px" />
  <g
     id="layer101"
     style="fill:#222020;stroke:none"
     transform="matrix(1.6493968,0,0,1.7118308,-581.66455,-784.87921)">
    <path
       d="m 461,1587 c -24,-24 -15,-57 90,-319 32,-81 59,-151 59,-155 0,-5 -43,-19 -96,-33 -83,-21 -99,-28 -121,-56 -13,-18 -27,-47 -30,-65 -4,-29 1,-38 58,-90 34,-33 66,-59 70,-59 5,0 34,-12 66,-26 32,-14 74,-32 93,-41 80,-35 84,-39 101,-100 33,-124 100,-183 208,-183 109,0 201,93 201,204 0,40 5,44 95,81 88,37 179,89 223,129 26,25 35,42 39,76 4,40 1,49 -29,82 -25,29 -47,41 -93,53 -32,8 -67,15 -77,15 -30,0 -29,17 6,112 57,153 106,293 112,325 11,58 18,57 -496,59 -318,1 -472,-2 -479,-9 z m 380,-107 c 5,-8 25,-50 45,-92 20,-43 42,-78 49,-78 20,0 51,42 85,118 l 33,72 h 153 c 85,0 154,-3 154,-6 0,-3 -14,-45 -31,-92 -111,-308 -118,-331 -102,-343 8,-7 26,-14 41,-15 15,-2 43,-6 62,-10 19,-4 38,-7 42,-6 13,3 58,-60 58,-82 0,-34 -73,-91 -175,-136 -136,-60 -138,-61 -150,-126 -14,-73 -26,-96 -68,-128 -43,-33 -76,-40 -125,-27 -61,17 -95,69 -106,168 -4,31 -39,77 -50,65 -3,-3 -6,1 -6,8 0,7 -3,10 -6,7 -4,-4 -20,0 -35,8 -16,8 -42,22 -59,31 -16,8 -30,13 -30,9 0,-3 -11,2 -25,11 -14,9 -25,13 -25,9 0,-5 -8,-1 -17,7 -10,8 -35,22 -55,32 -49,22 -64,49 -48,86 10,23 23,31 88,50 42,12 88,25 102,29 37,11 38,61 2,141 -16,36 -30,68 -30,73 -1,4 -9,24 -18,45 -9,20 -17,42 -18,47 -2,6 -9,24 -15,40 -12,26 -41,105 -41,109 0,0 70,-1 156,-4 125,-4 159,-8 165,-20 z m 143,12 c 2,-4 -7,-25 -20,-47 -13,-22 -24,-33 -24,-23 0,9 -6,23 -13,30 -7,7 -16,21 -20,31 -5,14 0,17 33,17 21,0 41,-3 44,-8 z"
       id="path4534"
       inkscape:connector-curvature="0" />
  </g>
  <g
     id="layer102"
     style="fill:#524845;stroke:none"
     transform="matrix(1.6493968,0,0,1.7118308,-581.66455,-784.87921)">
    <path
       d="m 872,1582 c -9,-6 -10,-16 -2,-39 8,-23 19,-32 42,-37 54,-11 93,2 105,35 10,25 9,29 -5,29 -15,0 -15,2 -2,10 10,7 -6,10 -55,10 -38,0 -76,-4 -83,-8 z"
       id="path4537"
       inkscape:connector-curvature="0" />
    <path
       d="m 1438,990 c 12,-18 18,-38 15,-43 -3,-6 -1,-7 5,-3 7,4 10,17 8,29 -3,12 -5,26 -5,31 -1,5 -4,6 -8,3 -3,-4 -13,-1 -21,5 -8,7 -6,-2 6,-22 z"
       id="path4539"
       inkscape:connector-curvature="0" />
  </g>
  <text
     xml:space="preserve"
     style="font-style:normal;font-variant:normal;font-weight:normal;font-stretch:normal;font-size:1189.78308105px;line-height:1.25;font-family:lato;-inkscape-font-specification:lato;letter-spacing:0px;word-spacing:0px;fill:#202022;fill-opacity:1;stroke:none;stroke-width:29.74457741"
     x="573.97614"
     y="1429.5436"
     id="text4552"
     transform="scale(1.0465066,0.95556017)"><tspan
       sodipodi:role="line"
       id="tspan4550"
       x="573.97614"
       y="1429.5436"
       style="font-style:normal;font-variant:normal;font-weight:normal;font-stretch:normal;font-family:lato;-inkscape-font-specification:lato;fill:#202022;fill-opacity:1;stroke-width:29.74457741">1</tspan></text>
</svg>
